<svg style="height: 512px; width: 512px;" xmlns="http://www.w3.org/2000/svg" viewBox="0 0 512 512"><g class="" style="" transform="translate(0,0)"><g><path d="M303.297 42.269C301.757 42.294 300.264 42.346 298.821 42.427C287.271 43.076 279.399 45.902 276.351 48.865L18.923 299.087L184.807 469.75L442.237 219.528C445.284 216.565 448.333 208.778 449.309 197.25C450.285 185.723 449.516 170.962 447.664 155.002C446.059 141.162 443.673 126.526 441.067 112.042C428.077 121.552 412.967 128.625 392.817 132.264C395.35 145.474 391.074 159.072 381.437 168.455C365.596 183.852 340.273 183.493 324.875 167.653C309.477 151.812 309.837 126.488 325.678 111.09C333.43 103.555 343.903 99.479 354.709 99.79C365.111 100.089 374.987 104.431 382.241 111.893C383.307 113.001 384.308 114.17 385.239 115.393C409.354 112.164 423.484 104.261 437.348 92.067C435.457 82.197 433.572 72.592 431.878 63.643C404.322 57.611 370.836 49.594 341.006 45.272C329.081 43.544 317.811 42.442 308.049 42.274C306.422 42.246 304.837 42.244 303.297 42.27Z" class="selected" fill="#fff" fill-opacity="1"></path><path d="M462.766 77.105C459.376 77.28 455.993 78.549 453.424 80.388C454.681 86.839 455.914 93.294 457.124 99.753L462.45 96.046C462.718 96.418 462.9 96.563 463.215 97.152C465.863 102.089 469.012 113.172 471.127 127.589C475.358 156.422 476.471 199.189 472.975 243.749C469.479 288.309 461.352 334.818 447.713 371.374C434.074 407.931 415.099 433.36 392.26 439.864C383.996 442.218 380.05 440.847 375.457 436.294C370.864 431.742 366.422 422.615 363.403 410.095C358.288 388.888 356.946 358.678 357.877 326.626L339.541 344.45C339.474 370.424 341.174 394.698 345.905 414.314C349.348 428.591 354.288 440.655 362.787 449.079C371.287 457.503 384.146 460.893 397.192 457.177C428.926 448.139 450.019 416.683 464.576 377.665C479.134 338.648 487.332 290.894 490.92 245.157C494.509 199.421 493.467 155.855 488.936 124.976C486.67 109.536 483.786 97.42 479.078 88.644C476.725 84.256 473.861 80.185 468.565 78.017C467.241 77.475 465.829 77.185 464.391 77.107C463.851 77.077 463.309 77.077 462.766 77.105Z" class="" fill="#fff" fill-opacity="1"></path><path d="M293.1 187.796L305.649 200.702L276.269 229.265C282.464 236.217 287.706 243.518 291.979 251.173C297.079 260.273 300.734 269.643 302.939 279.293L286.029 295.505C285.081 284.545 282.531 274.38 278.377 265.009C274.223 255.639 268.467 247.115 261.107 239.439C246.602 224.308 231.684 216.779 216.356 216.849C201.08 216.975 185.499 224.653 169.612 239.884C153.777 255.065 145.475 270.284 144.705 285.54C143.989 300.852 150.883 316.074 165.389 331.204C171.054 337.114 176.582 341.934 181.973 345.667C187.416 349.351 192.933 352.063 198.526 353.802L230.065 323.566L203.86 296.23L216.914 283.714L259.004 327.614L208.588 375.949C198.042 373.659 187.909 369.702 178.19 364.077C169.518 358.987 161.33 352.614 153.621 344.98L127.795 369.615L115.371 356.589L141.674 331.501C129.394 315.465 123.336 298.811 123.51 281.538C123.83 260.355 133.56 240.588 152.698 222.24C171.288 204.416 190.788 195.52 211.196 195.548C211.854 195.549 212.512 195.56 213.172 195.579C230.862 196.103 247.612 203.143 263.426 216.648Z" class="" fill="#fff" fill-opacity="1"></path></g></g></svg>